<svg width="36" height="36" viewBox="0 0 36 36" fill="none" xmlns="http://www.w3.org/2000/svg">
<path d="M9.615 25.3125C10.98 24.3592 12.3342 23.6279 13.6775 23.1187C15.0208 22.6096 16.4617 22.355 18 22.355C19.5383 22.355 20.9846 22.6096 22.3387 23.1187C23.6929 23.6279 25.0525 24.3592 26.4175 25.3125C27.3708 24.1425 28.0479 22.9617 28.4487 21.77C28.8496 20.5783 29.05 19.3217 29.05 18C29.05 14.8583 27.9937 12.2312 25.8812 10.1187C23.7687 8.00625 21.1417 6.95 18 6.95C14.8583 6.95 12.2312 8.00625 10.1187 10.1187C8.00625 12.2312 6.95 14.8583 6.95 18C6.95 19.3217 7.15583 20.5783 7.5675 21.77C7.97917 22.9617 8.66167 24.1425 9.615 25.3125ZM18 18.975C16.7433 18.975 15.6871 18.5471 14.8312 17.6912C13.9754 16.8354 13.5475 15.7792 13.5475 14.5225C13.5475 13.2658 13.9754 12.2096 14.8312 11.3537C15.6871 10.4979 16.7433 10.07 18 10.07C19.2567 10.07 20.3129 10.4979 21.1687 11.3537C22.0246 12.2096 22.4525 13.2658 22.4525 14.5225C22.4525 15.7792 22.0246 16.8354 21.1687 17.6912C20.3129 18.5471 19.2567 18.975 18 18.975ZM18 31C16.2233 31 14.5442 30.6587 12.9625 29.9762C11.3808 29.2937 9.99958 28.3621 8.81875 27.1812C7.63792 26.0004 6.70625 24.6192 6.02375 23.0375C5.34125 21.4558 5 19.7767 5 18C5 16.2017 5.34125 14.5171 6.02375 12.9462C6.70625 11.3754 7.63792 9.99958 8.81875 8.81875C9.99958 7.63792 11.3808 6.70625 12.9625 6.02375C14.5442 5.34125 16.2233 5 18 5C19.7983 5 21.4829 5.34125 23.0537 6.02375C24.6246 6.70625 26.0004 7.63792 27.1812 8.81875C28.3621 9.99958 29.2937 11.3754 29.9762 12.9462C30.6587 14.5171 31 16.2017 31 18C31 19.7767 30.6587 21.4558 29.9762 23.0375C29.2937 24.6192 28.3621 26.0004 27.1812 27.1812C26.0004 28.3621 24.6246 29.2937 23.0537 29.9762C21.4829 30.6587 19.7983 31 18 31ZM18 29.05C19.1917 29.05 20.3562 28.8767 21.4937 28.53C22.6312 28.1833 23.7525 27.5767 24.8575 26.71C23.7525 25.93 22.6258 25.3342 21.4775 24.9225C20.3292 24.5108 19.17 24.305 18 24.305C16.83 24.305 15.6708 24.5108 14.5225 24.9225C13.3742 25.3342 12.2475 25.93 11.1425 26.71C12.2475 27.5767 13.3687 28.1833 14.5062 28.53C15.6437 28.8767 16.8083 29.05 18 29.05ZM18 17.025C18.7367 17.025 19.3379 16.7921 19.8037 16.3262C20.2696 15.8604 20.5025 15.2592 20.5025 14.5225C20.5025 13.7858 20.2696 13.1846 19.8037 12.7187C19.3379 12.2529 18.7367 12.02 18 12.02C17.2633 12.02 16.6621 12.2529 16.1962 12.7187C15.7304 13.1846 15.4975 13.7858 15.4975 14.5225C15.4975 15.2592 15.7304 15.8604 16.1962 16.3262C16.6621 16.7921 17.2633 17.025 18 17.025Z" fill="#272829"/>
</svg>
