<svg width="135" height="40" viewBox="0 0 135 40" fill="none" xmlns="http://www.w3.org/2000/svg">
<path fill-rule="evenodd" clip-rule="evenodd" d="M135 35.9904C135 38.2056 133.262 40 131.113 40H3.89257C1.744 40 0 38.2056 0 35.9904V4.01487C0 1.80067 1.744 0 3.89257 0H131.111C133.262 0 135 1.80067 135 4.01487V35.9904Z" fill="#192133"/>
<path d="M30.1281 19.784C30.0991 16.561 32.7671 14.993 32.8891 14.92C31.3781 12.717 29.0361 12.416 28.2131 12.392C26.2461 12.185 24.3381 13.569 23.3361 13.569C22.3141 13.569 20.7711 12.412 19.1081 12.446C16.9681 12.479 14.9661 13.718 13.8681 15.642C11.6021 19.565 13.2921 25.33 15.4631 28.501C16.5491 30.054 17.8181 31.788 19.4791 31.727C21.1041 31.66 21.7111 30.691 23.6721 30.691C25.6151 30.691 26.1851 31.727 27.8791 31.688C29.6231 31.66 30.7211 30.128 31.7691 28.561C33.0241 26.781 33.5281 25.028 33.5481 24.938C33.5071 24.924 30.1611 23.647 30.1281 19.784Z" fill="white"/>
<path d="M26.928 10.306C27.802 9.21298 28.4 7.72598 28.234 6.21698C26.969 6.27298 25.387 7.09198 24.476 8.16098C23.67 9.10298 22.95 10.647 23.136 12.099C24.557 12.205 26.016 11.382 26.928 10.306Z" fill="white"/>
<path fill-rule="evenodd" clip-rule="evenodd" d="M53.6452 30.504H51.3742L50.1302 26.595H45.8062L44.6212 30.504H42.4102L46.6942 17.196H49.3402L53.6452 30.504ZM49.7552 24.955L48.6302 21.48C48.5112 21.125 48.2882 20.289 47.9592 18.973H47.9192C47.7882 19.539 47.5772 20.375 47.2872 21.48L46.1822 24.955H49.7552Z" fill="#B1C3D3"/>
<path fill-rule="evenodd" clip-rule="evenodd" d="M64.6624 25.588C64.6624 27.22 64.2214 28.51 63.3394 29.457C62.5494 30.3 61.5684 30.721 60.3974 30.721C59.1334 30.721 58.2254 30.267 57.6724 29.359H57.6324V34.414H55.5004V24.067C55.5004 23.041 55.4734 21.988 55.4214 20.908H57.2964L57.4154 22.429H57.4554C58.1664 21.283 59.2454 20.711 60.6934 20.711C61.8254 20.711 62.7704 21.158 63.5264 22.053C64.2844 22.949 64.6624 24.127 64.6624 25.588ZM62.4904 25.666C62.4904 24.732 62.2804 23.962 61.8584 23.356C61.3974 22.724 60.7784 22.408 60.0024 22.408C59.4764 22.408 58.9984 22.584 58.5714 22.931C58.1434 23.281 57.8634 23.738 57.7324 24.304C57.6664 24.568 57.6334 24.784 57.6334 24.954V26.554C57.6334 27.252 57.8474 27.841 58.2754 28.322C58.7034 28.803 59.2594 29.043 59.9434 29.043C60.7464 29.043 61.3714 28.733 61.8184 28.115C62.2664 27.496 62.4904 26.68 62.4904 25.666Z" fill="#B1C3D3"/>
<path fill-rule="evenodd" clip-rule="evenodd" d="M75.699 25.588C75.699 27.22 75.258 28.51 74.375 29.457C73.586 30.3 72.605 30.721 71.434 30.721C70.17 30.721 69.262 30.267 68.71 29.359H68.67V34.414H66.538V24.067C66.538 23.041 66.511 21.988 66.459 20.908H68.334L68.453 22.429H68.493C69.203 21.283 70.282 20.711 71.731 20.711C72.862 20.711 73.807 21.158 74.565 22.053C75.32 22.949 75.699 24.127 75.699 25.588ZM73.527 25.666C73.527 24.732 73.316 23.962 72.894 23.356C72.433 22.724 71.816 22.408 71.039 22.408C70.512 22.408 70.035 22.584 69.607 22.931C69.179 23.281 68.9 23.738 68.769 24.304C68.704 24.568 68.67 24.784 68.67 24.954V26.554C68.67 27.252 68.884 27.841 69.31 28.322C69.738 28.802 70.294 29.043 70.98 29.043C71.783 29.043 72.408 28.733 72.855 28.115C73.303 27.496 73.527 26.68 73.527 25.666Z" fill="#B1C3D3"/>
<path fill-rule="evenodd" clip-rule="evenodd" d="M88.0392 26.772C88.0392 27.904 87.6462 28.825 86.8572 29.536C85.9902 30.313 84.7832 30.701 83.2322 30.701C81.8002 30.701 80.6522 30.425 79.7832 29.872L80.2772 28.095C81.2132 28.661 82.2402 28.945 83.3592 28.945C84.1622 28.945 84.7872 28.763 85.2362 28.401C85.6832 28.039 85.9062 27.553 85.9062 26.947C85.9062 26.407 85.7222 25.952 85.3532 25.583C84.9862 25.214 84.3732 24.871 83.5172 24.554C81.1872 23.685 80.0232 22.412 80.0232 20.738C80.0232 19.644 80.4312 18.747 81.2482 18.049C82.0622 17.35 83.1482 17.001 84.5062 17.001C85.7172 17.001 86.7232 17.212 87.5262 17.633L86.9932 19.371C86.2432 18.963 85.3952 18.759 84.4462 18.759C83.6962 18.759 83.1102 18.944 82.6902 19.312C82.3352 19.641 82.1572 20.042 82.1572 20.517C82.1572 21.043 82.3602 21.478 82.7682 21.82C83.1232 22.136 83.7682 22.478 84.7042 22.847C85.8492 23.308 86.6902 23.847 87.2312 24.465C87.7702 25.081 88.0392 25.852 88.0392 26.772Z" fill="#B1C3D3"/>
<path fill-rule="evenodd" clip-rule="evenodd" d="M95.0881 22.508H92.7381V27.167C92.7381 28.352 93.1521 28.944 93.9821 28.944C94.3631 28.944 94.6791 28.911 94.9291 28.845L94.9881 30.464C94.5681 30.621 94.0151 30.7 93.3301 30.7C92.4881 30.7 91.8301 30.443 91.3551 29.93C90.8821 29.416 90.6441 28.554 90.6441 27.343V22.506H89.2441V20.906H90.6441V19.149L92.7381 18.517V20.906H95.0881V22.508Z" fill="#B1C3D3"/>
<path fill-rule="evenodd" clip-rule="evenodd" d="M105.691 25.627C105.691 27.102 105.269 28.313 104.427 29.26C103.544 30.235 102.372 30.721 100.911 30.721C99.503 30.721 98.382 30.254 97.546 29.32C96.71 28.386 96.292 27.207 96.292 25.786C96.292 24.299 96.722 23.081 97.585 22.134C98.446 21.186 99.608 20.712 101.069 20.712C102.477 20.712 103.61 21.179 104.465 22.114C105.283 23.021 105.691 24.192 105.691 25.627ZM103.479 25.696C103.479 24.811 103.29 24.052 102.907 23.419C102.46 22.653 101.821 22.271 100.993 22.271C100.136 22.271 99.485 22.654 99.038 23.419C98.655 24.053 98.466 24.824 98.466 25.736C98.466 26.621 98.655 27.38 99.038 28.012C99.499 28.778 100.143 29.16 100.974 29.16C101.788 29.16 102.427 28.77 102.888 27.992C103.281 27.347 103.479 26.58 103.479 25.696Z" fill="#B1C3D3"/>
<path fill-rule="evenodd" clip-rule="evenodd" d="M112.621 22.783C112.41 22.744 112.185 22.724 111.949 22.724C111.199 22.724 110.619 23.007 110.211 23.574C109.856 24.074 109.678 24.706 109.678 25.469V30.504H107.547L107.567 23.93C107.567 22.824 107.54 21.817 107.487 20.909H109.344L109.422 22.745H109.481C109.706 22.114 110.061 21.606 110.547 21.225C111.022 20.882 111.535 20.711 112.088 20.711C112.285 20.711 112.463 20.725 112.621 20.75V22.783Z" fill="#B1C3D3"/>
<path fill-rule="evenodd" clip-rule="evenodd" d="M122.156 25.252C122.156 25.634 122.131 25.956 122.078 26.219H115.682C115.707 27.167 116.016 27.892 116.61 28.392C117.149 28.839 117.846 29.063 118.702 29.063C119.649 29.063 120.513 28.912 121.29 28.609L121.624 30.089C120.716 30.485 119.644 30.682 118.407 30.682C116.919 30.682 115.751 30.244 114.901 29.369C114.053 28.494 113.628 27.319 113.628 25.845C113.628 24.398 114.023 23.193 114.814 22.232C115.642 21.206 116.761 20.693 118.169 20.693C119.552 20.693 120.599 21.206 121.31 22.232C121.873 23.047 122.156 24.055 122.156 25.252ZM120.123 24.699C120.137 24.067 119.998 23.521 119.709 23.06C119.34 22.467 118.773 22.171 118.01 22.171C117.313 22.171 116.746 22.46 116.313 23.04C115.958 23.501 115.747 24.054 115.682 24.698H120.123V24.699Z" fill="#B1C3D3"/>
<path fill-rule="evenodd" clip-rule="evenodd" d="M49.0498 10.009C49.0498 11.186 48.6968 12.072 47.9918 12.667C47.3388 13.216 46.4108 13.491 45.2088 13.491C44.6128 13.491 44.1028 13.465 43.6758 13.413V6.98201C44.2328 6.89201 44.8328 6.84601 45.4808 6.84601C46.6258 6.84601 47.4888 7.09501 48.0708 7.59301C48.7228 8.15601 49.0498 8.96101 49.0498 10.009ZM47.9448 10.038C47.9448 9.27501 47.7428 8.69001 47.3388 8.28201C46.9348 7.87501 46.3448 7.67101 45.5678 7.67101C45.2378 7.67101 44.9568 7.69301 44.7238 7.73901V12.628C44.8528 12.648 45.0888 12.657 45.4318 12.657C46.2338 12.657 46.8528 12.434 47.2888 11.988C47.7248 11.542 47.9448 10.892 47.9448 10.038Z" fill="#B1C3D3"/>
<path fill-rule="evenodd" clip-rule="evenodd" d="M54.909 11.037C54.909 11.762 54.702 12.356 54.288 12.822C53.854 13.301 53.279 13.54 52.561 13.54C51.869 13.54 51.318 13.311 50.907 12.851C50.497 12.392 50.292 11.813 50.292 11.115C50.292 10.385 50.503 9.78605 50.927 9.32105C51.351 8.85605 51.921 8.62305 52.639 8.62305C53.331 8.62305 53.887 8.85205 54.308 9.31105C54.708 9.75705 54.909 10.333 54.909 11.037ZM53.822 11.071C53.822 10.636 53.728 10.263 53.541 9.95205C53.321 9.57605 53.008 9.38805 52.601 9.38805C52.18 9.38805 51.86 9.57605 51.64 9.95205C51.452 10.263 51.359 10.642 51.359 11.09C51.359 11.525 51.453 11.898 51.64 12.209C51.867 12.585 52.183 12.773 52.591 12.773C52.991 12.773 53.305 12.582 53.531 12.199C53.725 11.882 53.822 11.506 53.822 11.071Z" fill="#B1C3D3"/>
<path fill-rule="evenodd" clip-rule="evenodd" d="M62.7646 8.71906L61.2896 13.4331H60.3296L59.7186 11.3861C59.5636 10.8751 59.4376 10.3671 59.3396 9.86305H59.3206C59.2296 10.3811 59.1036 10.8881 58.9416 11.3861L58.2926 13.4331H57.3216L55.9346 8.71906H57.0116L57.5446 10.9601C57.6736 11.4901 57.7796 11.9951 57.8646 12.4731H57.8836C57.9616 12.0791 58.0906 11.5771 58.2726 10.9701L58.9416 8.72006H59.7956L60.4366 10.9221C60.5916 11.4591 60.7176 11.9761 60.8146 12.4741H60.8436C60.9146 11.9891 61.0216 11.4721 61.1636 10.9221L61.7356 8.72006H62.7646V8.71906Z" fill="#B1C3D3"/>
<path fill-rule="evenodd" clip-rule="evenodd" d="M68.1979 13.4331H67.1499V10.7331C67.1499 9.90106 66.8339 9.48506 66.1999 9.48506C65.8889 9.48506 65.6379 9.59906 65.4429 9.82806C65.2499 10.0571 65.1519 10.3271 65.1519 10.6361V13.4321H64.1039V10.0661C64.1039 9.65206 64.0909 9.20306 64.0659 8.71706H64.9869L65.0359 9.45406H65.0649C65.1869 9.22506 65.3689 9.03606 65.6079 8.88506C65.8919 8.70906 66.2099 8.62006 66.5579 8.62006C66.9979 8.62006 67.3639 8.76206 67.6549 9.04706C68.0169 9.39606 68.1979 9.91706 68.1979 10.6091V13.4331Z" fill="#B1C3D3"/>
<path fill-rule="evenodd" clip-rule="evenodd" d="M71.088 13.433H70.041V6.55603H71.088V13.433Z" fill="#B1C3D3"/>
<path fill-rule="evenodd" clip-rule="evenodd" d="M77.2576 11.037C77.2576 11.762 77.0506 12.356 76.6366 12.822C76.2026 13.301 75.6266 13.54 74.9096 13.54C74.2166 13.54 73.6656 13.311 73.2556 12.851C72.8456 12.392 72.6406 11.813 72.6406 11.115C72.6406 10.385 72.8516 9.78605 73.2756 9.32105C73.6996 8.85605 74.2696 8.62305 74.9866 8.62305C75.6796 8.62305 76.2346 8.85205 76.6566 9.31105C77.0566 9.75705 77.2576 10.333 77.2576 11.037ZM76.1696 11.071C76.1696 10.636 76.0756 10.263 75.8886 9.95205C75.6696 9.57605 75.3556 9.38805 74.9496 9.38805C74.5276 9.38805 74.2076 9.57605 73.9886 9.95205C73.8006 10.263 73.7076 10.642 73.7076 11.09C73.7076 11.525 73.8016 11.898 73.9886 12.209C74.2156 12.585 74.5316 12.773 74.9396 12.773C75.3396 12.773 75.6526 12.582 75.8786 12.199C76.0736 11.882 76.1696 11.506 76.1696 11.071Z" fill="#B1C3D3"/>
<path fill-rule="evenodd" clip-rule="evenodd" d="M82.33 13.433H81.389L81.311 12.89H81.282C80.96 13.323 80.501 13.54 79.905 13.54C79.46 13.54 79.1 13.397 78.829 13.113C78.583 12.855 78.46 12.534 78.46 12.153C78.46 11.577 78.7 11.138 79.183 10.834C79.665 10.53 80.343 10.381 81.216 10.388V10.3C81.216 9.67905 80.89 9.36905 80.237 9.36905C79.772 9.36905 79.362 9.48605 79.008 9.71805L78.795 9.03005C79.233 8.75905 79.774 8.62305 80.412 8.62305C81.644 8.62305 82.262 9.27305 82.262 10.573V12.309C82.262 12.78 82.285 13.155 82.33 13.433ZM81.242 11.813V11.086C80.086 11.066 79.508 11.383 79.508 12.036C79.508 12.282 79.574 12.466 79.709 12.589C79.844 12.712 80.016 12.773 80.221 12.773C80.451 12.773 80.666 12.7 80.862 12.555C81.059 12.409 81.18 12.224 81.225 11.997C81.236 11.946 81.242 11.884 81.242 11.813Z" fill="#B1C3D3"/>
<path fill-rule="evenodd" clip-rule="evenodd" d="M88.2847 13.433H87.3547L87.3057 12.676H87.2767C86.9797 13.252 86.4737 13.54 85.7627 13.54C85.1947 13.54 84.7217 13.317 84.3467 12.871C83.9717 12.425 83.7847 11.846 83.7847 11.135C83.7847 10.372 83.9877 9.75403 84.3957 9.28203C84.7907 8.84203 85.2747 8.62203 85.8507 8.62203C86.4837 8.62203 86.9267 8.83503 87.1787 9.26203H87.1987V6.55603H88.2477V12.163C88.2477 12.622 88.2597 13.045 88.2847 13.433ZM87.1987 11.445V10.659C87.1987 10.523 87.1887 10.413 87.1697 10.329C87.1107 10.077 86.9837 9.86503 86.7907 9.69403C86.5957 9.52303 86.3607 9.43703 86.0897 9.43703C85.6987 9.43703 85.3927 9.59203 85.1677 9.90303C84.9447 10.214 84.8317 10.611 84.8317 11.096C84.8317 11.562 84.9387 11.94 85.1537 12.231C85.3807 12.541 85.6867 12.696 86.0697 12.696C86.4137 12.696 86.6887 12.567 86.8977 12.308C87.0997 12.069 87.1987 11.781 87.1987 11.445Z" fill="#B1C3D3"/>
<path fill-rule="evenodd" clip-rule="evenodd" d="M97.2479 11.037C97.2479 11.762 97.0409 12.356 96.6269 12.822C96.1929 13.301 95.6189 13.54 94.8999 13.54C94.2089 13.54 93.6579 13.311 93.2459 12.851C92.8359 12.392 92.6309 11.813 92.6309 11.115C92.6309 10.385 92.8419 9.78605 93.2659 9.32105C93.6899 8.85605 94.2599 8.62305 94.9789 8.62305C95.6699 8.62305 96.2269 8.85205 96.6469 9.31105C97.0469 9.75705 97.2479 10.333 97.2479 11.037ZM96.1619 11.071C96.1619 10.636 96.0679 10.263 95.8809 9.95205C95.6599 9.57605 95.3479 9.38805 94.9399 9.38805C94.5199 9.38805 94.1999 9.57605 93.9789 9.95205C93.7909 10.263 93.6979 10.642 93.6979 11.09C93.6979 11.525 93.7919 11.898 93.9789 12.209C94.2059 12.585 94.5219 12.773 94.9299 12.773C95.3299 12.773 95.6449 12.582 95.8709 12.199C96.0639 11.882 96.1619 11.506 96.1619 11.071Z" fill="#B1C3D3"/>
<path fill-rule="evenodd" clip-rule="evenodd" d="M102.883 13.4331H101.836V10.7331C101.836 9.90106 101.52 9.48506 100.885 9.48506C100.574 9.48506 100.323 9.59906 100.129 9.82806C99.935 10.0571 99.838 10.3271 99.838 10.6361V13.4321H98.789V10.0661C98.789 9.65206 98.777 9.20306 98.752 8.71706H99.672L99.721 9.45406H99.75C99.873 9.22506 100.055 9.03606 100.293 8.88506C100.578 8.70906 100.895 8.62006 101.244 8.62006C101.683 8.62006 102.049 8.76206 102.34 9.04706C102.703 9.39606 102.883 9.91706 102.883 10.6091V13.4331Z" fill="#B1C3D3"/>
<path fill-rule="evenodd" clip-rule="evenodd" d="M109.936 9.50404H108.782V11.794C108.782 12.376 108.987 12.667 109.393 12.667C109.581 12.667 109.737 12.651 109.86 12.618L109.887 13.413C109.68 13.491 109.408 13.53 109.073 13.53C108.659 13.53 108.337 13.404 108.104 13.152C107.87 12.9 107.754 12.476 107.754 11.881V9.50404H107.065V8.71904H107.754V7.85504L108.781 7.54504V8.71804H109.935V9.50404H109.936Z" fill="#B1C3D3"/>
<path fill-rule="evenodd" clip-rule="evenodd" d="M115.484 13.433H114.435V10.753C114.435 9.90803 114.119 9.48503 113.486 9.48503C113 9.48503 112.668 9.73003 112.486 10.22C112.455 10.323 112.437 10.449 112.437 10.597V13.432H111.39V6.55603H112.437V9.39703H112.457C112.787 8.88003 113.26 8.62203 113.873 8.62203C114.307 8.62203 114.666 8.76403 114.951 9.04903C115.306 9.40403 115.484 9.93203 115.484 10.63V13.433Z" fill="#B1C3D3"/>
<path fill-rule="evenodd" clip-rule="evenodd" d="M121.207 10.853C121.207 11.041 121.193 11.199 121.168 11.328H118.025C118.039 11.794 118.189 12.149 118.48 12.395C118.746 12.615 119.089 12.725 119.509 12.725C119.974 12.725 120.398 12.651 120.78 12.502L120.944 13.23C120.497 13.424 119.971 13.521 119.362 13.521C118.632 13.521 118.057 13.306 117.641 12.876C117.223 12.446 117.016 11.869 117.016 11.145C117.016 10.434 117.209 9.84201 117.598 9.37001C118.004 8.86601 118.553 8.61401 119.246 8.61401C119.924 8.61401 120.439 8.86601 120.787 9.37001C121.068 9.77001 121.207 10.265 121.207 10.853ZM120.207 10.582C120.215 10.271 120.146 10.003 120.004 9.77701C119.822 9.48601 119.545 9.34001 119.17 9.34001C118.828 9.34001 118.549 9.48201 118.336 9.76701C118.162 9.99401 118.059 10.265 118.025 10.582H120.207Z" fill="#B1C3D3"/>
</svg>
