<svg width="18" height="16" viewBox="0 0 18 16" fill="none" xmlns="http://www.w3.org/2000/svg">
<path d="M4.59737 7.195L8.65 1L12.7026 7.195H4.59737ZM12.7947 15C11.886 15 11.1246 14.7083 10.5105 14.125C9.89649 13.5417 9.58947 12.8183 9.58947 11.955C9.58947 11.0917 9.89649 10.3683 10.5105 9.785C11.1246 9.20167 11.886 8.91 12.7947 8.91C13.7035 8.91 14.4649 9.20167 15.0789 9.785C15.693 10.3683 16 11.0917 16 11.955C16 12.8183 15.693 13.5417 15.0789 14.125C14.4649 14.7083 13.7035 15 12.7947 15ZM2 14.5625V9.2425H7.6V14.5625H2ZM12.7947 13.95C13.3842 13.95 13.8816 13.7575 14.2868 13.3725C14.6921 12.9875 14.8947 12.515 14.8947 11.955C14.8947 11.395 14.6921 10.9225 14.2868 10.5375C13.8816 10.1525 13.3842 9.96 12.7947 9.96C12.2053 9.96 11.7079 10.1525 11.3026 10.5375C10.8974 10.9225 10.6947 11.395 10.6947 11.955C10.6947 12.515 10.8974 12.9875 11.3026 13.3725C11.7079 13.7575 12.2053 13.95 12.7947 13.95ZM3.10526 13.5125H6.49474V10.2925H3.10526V13.5125ZM6.58684 6.145H10.7132L8.65 2.9775L6.58684 6.145Z" fill="#A4A4A4"/>
</svg>
