<svg width="57" height="20" viewBox="0 0 57 20" fill="none" xmlns="http://www.w3.org/2000/svg">
<g clip-path="url(#clip0_61_4)">
<path d="M14.0281 7.07206H7.38366V9.17767H12.096C11.8632 12.1303 9.56294 13.3895 7.39164 13.3895C4.61369 13.3895 2.18959 11.0553 2.18959 7.78371C2.18959 4.59666 4.50037 2.14219 7.39774 2.14219C9.63311 2.14219 10.9503 3.66398 10.9503 3.66398L12.3309 2.13726C12.3309 2.13726 10.5589 0.0306091 7.32717 0.0306091C3.21194 0.0305483 0.0283203 3.7397 0.0283203 7.74609C0.0283203 11.6719 3.02304 15.4999 7.43205 15.4999C11.3098 15.4999 14.1484 12.6631 14.1484 8.46803C14.1484 7.58302 14.028 7.07151 14.028 7.07151L14.0281 7.07206Z" fill="#4885ED"/>
<path d="M19.4713 5.54718C16.7449 5.54718 14.791 7.82348 14.791 10.4783C14.791 13.1723 16.6862 15.4909 19.5034 15.4909C22.0537 15.4909 24.143 13.4093 24.143 10.5362C24.143 7.24313 21.7126 5.54718 19.4713 5.54718V5.54718ZM19.4985 7.50013C20.8392 7.50013 22.1097 8.65772 22.1097 10.523C22.1097 12.3487 20.8446 13.5393 19.4923 13.5393C18.0064 13.5393 16.8342 12.2684 16.8342 10.5085C16.8342 8.78635 17.9919 7.50013 19.4985 7.50013V7.50013Z" fill="#DB3236"/>
<path d="M29.6501 5.54718C26.9236 5.54718 24.9697 7.82348 24.9697 10.4783C24.9697 13.1723 26.8649 15.4909 29.6821 15.4909C32.2324 15.4909 34.3217 13.4093 34.3217 10.5362C34.3217 7.24313 31.8914 5.54718 29.6501 5.54718V5.54718ZM29.6772 7.50013C31.0179 7.50013 32.2884 8.65772 32.2884 10.523C32.2884 12.3487 31.0233 13.5393 29.671 13.5393C28.1851 13.5393 27.0129 12.2684 27.0129 10.5085C27.0129 8.78635 28.1706 7.50013 29.6772 7.50013V7.50013Z" fill="#F4C20D"/>
<path d="M39.6341 5.5524C37.1316 5.5524 35.1646 7.8931 35.1646 10.5203C35.1646 13.513 37.4451 15.4975 39.591 15.4975C40.9179 15.4975 41.6234 14.935 42.1444 14.2894V15.2698C42.1444 16.9851 41.1691 18.0123 39.697 18.0123C38.2749 18.0123 37.5616 16.8831 37.3137 16.2423L35.5244 17.0411C36.1592 18.4745 37.437 19.9692 39.7118 19.9692C42.2 19.9692 44.0964 18.2956 44.0964 14.7855V5.85134H42.1444V6.69356C41.5442 6.00285 40.7234 5.55252 39.6341 5.55252V5.5524ZM39.8153 7.50139C41.0422 7.50139 42.3021 8.62021 42.3021 10.5309C42.3021 12.4729 41.0449 13.5432 39.7882 13.5432C38.454 13.5432 37.2126 12.3863 37.2126 10.5493C37.2126 8.64048 38.5019 7.50139 39.8152 7.50139H39.8153Z" fill="#4885ED"/>
<path d="M52.7758 5.54053C50.4152 5.54053 48.4331 7.54625 48.4331 10.5058C48.4331 13.6375 50.6424 15.4948 53.0025 15.4948C54.9723 15.4948 56.1813 14.344 56.9028 13.3129L55.2934 12.1693C54.8758 12.8614 54.1776 13.5379 53.0124 13.5379C51.7035 13.5379 51.1017 12.7725 50.7289 12.0311L56.9715 9.26484L56.6474 8.45415C56.0444 6.86662 54.6376 5.54083 52.776 5.54083L52.7758 5.54053ZM52.8571 7.45269C53.7077 7.45269 54.3199 7.93566 54.5799 8.51472L50.4109 10.3756C50.2312 8.93492 51.5093 7.45269 52.8571 7.45269Z" fill="#DB3236"/>
<path d="M45.457 15.1997H47.5076V0.5448H45.457V15.1997Z" fill="#3CBA54"/>
</g>
<defs>
<clipPath id="clip0_61_4">
<rect width="57" height="20" fill="white"/>
</clipPath>
</defs>
</svg>
