<svg width="40" height="15" viewBox="0 0 40 15" fill="none" xmlns="http://www.w3.org/2000/svg">
<g clip-path="url(#clip0_9_20)">
<path fill-rule="evenodd" clip-rule="evenodd" d="M19.0831 0.884C26.3751 0.999 29.7731 3.73 29.2751 9.077C28.7771 14.438 25.0641 16.16 18.1371 14.242C18.0385 14.2147 17.9504 14.1584 17.8841 14.0805C17.8178 14.0026 17.7764 13.9067 17.7651 13.805L17.7631 13.715L18.5631 1.362C18.5718 1.23079 18.6307 1.10797 18.7275 1.01898C18.8243 0.929988 18.9516 0.881657 19.0831 0.884V0.884ZM8.4001 0.959L8.4921 0.973L10.9221 1.59C10.997 1.60909 11.0667 1.6449 11.1258 1.69474C11.1849 1.74459 11.2319 1.80717 11.2634 1.8778C11.2949 1.94842 11.3099 2.02526 11.3074 2.10254C11.305 2.17982 11.285 2.25553 11.2491 2.324L8.7441 7.087L12.1061 12.883C12.1439 12.9483 12.1668 13.0211 12.1731 13.0963C12.1795 13.1714 12.1691 13.2471 12.1429 13.3178C12.1166 13.3885 12.075 13.4525 12.0211 13.5053C11.9672 13.558 11.9023 13.5982 11.8311 13.623L9.1231 14.561C9.01499 14.5984 8.89746 14.5986 8.78925 14.5614C8.68105 14.5243 8.5884 14.452 8.5261 14.356L5.7521 10.082L4.5551 11.862V14.223C4.55507 14.3512 4.50699 14.4746 4.42034 14.5691C4.33369 14.6635 4.21478 14.722 4.0871 14.733L1.5221 14.955C1.45477 14.9608 1.38696 14.9531 1.32257 14.9326C1.25819 14.9121 1.19849 14.879 1.14692 14.8353C1.09535 14.7917 1.05292 14.7382 1.02206 14.6781C0.991196 14.618 0.97252 14.5524 0.967101 14.485L0.00110088 2.253C-0.00947467 2.11904 0.0330401 1.98629 0.119472 1.88339C0.205904 1.7805 0.329323 1.71571 0.463101 1.703L3.4831 1.419C3.6168 1.40637 3.75011 1.44678 3.8543 1.53151C3.95849 1.61625 4.02522 1.73853 4.0401 1.872L4.5551 6.502L7.9351 1.195C7.99316 1.10431 8.07833 1.03423 8.17851 0.994736C8.27869 0.955239 8.38877 0.948333 8.4931 0.975L8.4001 0.959ZM15.4641 4.412C15.5997 4.41618 15.7282 4.47403 15.8212 4.57285C15.9142 4.67167 15.9641 4.80336 15.9601 4.939L15.7001 13.621C15.6962 13.7542 15.6405 13.8806 15.5449 13.9734C15.4493 14.0662 15.3213 14.1181 15.1881 14.118H13.1381C13.0044 14.118 12.8759 14.0657 12.7802 13.9723C12.6846 13.8789 12.6292 13.7517 12.6261 13.618L12.4291 4.935V4.924C12.4291 4.641 12.6571 4.412 12.9401 4.412H15.4641ZM30.1101 3.409C31.2561 0.932 34.2231 0.276 39.0101 1.441C39.2841 1.508 39.4521 1.781 39.3881 2.054L38.9211 4.069C38.9045 4.14026 38.8728 4.20714 38.8282 4.26513C38.7836 4.32313 38.7271 4.37088 38.6625 4.40519C38.5978 4.43949 38.5266 4.45954 38.4536 4.464C38.3806 4.46845 38.3074 4.4572 38.2391 4.431C36.5241 3.774 35.1791 3.561 34.2051 3.791C32.5921 4.171 33.2221 5.503 34.7681 5.807C36.3151 6.111 40.4621 6.177 39.9581 10.919C39.6311 13.989 36.2781 14.849 29.8971 13.499C29.8255 13.4838 29.758 13.4534 29.6992 13.4099C29.6404 13.3664 29.5915 13.3108 29.556 13.2468C29.5205 13.1829 29.499 13.112 29.4932 13.0391C29.4874 12.9662 29.4972 12.8928 29.5221 12.824L30.3921 10.422L30.3981 10.404C30.4492 10.2784 30.5479 10.1782 30.6728 10.1253C30.7976 10.0724 30.9384 10.0712 31.0641 10.122C33.7731 11.218 35.3571 11.369 35.8191 10.572C36.5521 9.307 34.8281 9.333 33.3491 8.938C31.8691 8.543 28.3331 7.25 30.1101 3.409V3.409ZM21.9771 4.235C21.9084 4.229 21.8392 4.23694 21.7736 4.25834C21.7081 4.27975 21.6475 4.31418 21.5956 4.35957C21.5437 4.40495 21.5014 4.46037 21.4714 4.52247C21.4415 4.58458 21.4243 4.65211 21.4211 4.721L21.1221 11.049C21.1162 11.1741 21.1564 11.2971 21.2351 11.3946C21.3138 11.4921 21.4255 11.5573 21.5491 11.578C24.3311 12.045 25.8021 10.994 25.9631 8.427C26.1231 5.88 24.7951 4.483 21.9771 4.235ZM14.1971 0C15.1801 0 15.9771 0.79 15.9771 1.765C15.9771 2.739 15.1801 3.529 14.1971 3.529C13.2141 3.529 12.4171 2.739 12.4171 1.765C12.4171 0.79 13.2141 0 14.1971 0Z" fill="#FFAA05"/>
</g>
<defs>
<clipPath id="clip0_9_20">
<rect width="40" height="15" fill="white"/>
</clipPath>
</defs>
</svg>
