<svg width="16" height="14" viewBox="0 0 16 14" fill="none" xmlns="http://www.w3.org/2000/svg">
<path d="M8.00005 13.125C7.12894 13.125 6.31487 12.9642 5.55783 12.6427C4.80079 12.3211 4.14228 11.8847 3.58228 11.3334C3.02228 10.7822 2.58154 10.1314 2.26005 9.38109C1.93857 8.63078 1.77783 7.82688 1.77783 6.96938C1.77783 6.11187 1.93857 5.31307 2.26005 4.57297C2.58154 3.83286 3.02228 3.18719 3.58228 2.63594C4.14228 2.08469 4.80079 1.65339 5.55783 1.34203C6.31487 1.03068 7.12894 0.875 8.00005 0.875C8.87117 0.875 9.68524 1.03068 10.4423 1.34203C11.1993 1.65339 11.8578 2.08469 12.4178 2.63594C12.9778 3.18719 13.4186 3.83286 13.7401 4.57297C14.0615 5.31307 14.2223 6.11187 14.2223 6.96938C14.2223 7.82688 14.0615 8.63078 13.7401 9.38109C13.4186 10.1314 12.9778 10.7822 12.4178 11.3334C11.8578 11.8847 11.1993 12.3211 10.4423 12.6427C9.68524 12.9642 8.87117 13.125 8.00005 13.125ZM8.00005 12.2369C8.36302 11.8694 8.66635 11.4483 8.91005 10.9736C9.15376 10.4989 9.35339 9.9349 9.50894 9.28156H6.50672C6.65191 9.89406 6.84635 10.4453 7.09005 10.9353C7.33376 11.4253 7.63709 11.8592 8.00005 12.2369ZM6.67783 12.0531C6.41857 11.6652 6.19561 11.2467 6.00894 10.7975C5.82228 10.3483 5.66672 9.84302 5.54228 9.28156H3.20894C3.60302 10.0064 4.05931 10.5755 4.57783 10.9889C5.09635 11.4023 5.79635 11.7571 6.67783 12.0531ZM9.33783 12.0378C10.0845 11.803 10.756 11.4508 11.3523 10.9813C11.9486 10.5117 12.4282 9.9451 12.7912 9.28156H10.4734C10.3386 9.83281 10.1804 10.333 9.99894 10.7822C9.81746 11.2314 9.59709 11.6499 9.33783 12.0378ZM2.89783 8.36281H5.37117C5.34005 8.08719 5.32191 7.83964 5.31672 7.62016C5.31154 7.40068 5.30894 7.18375 5.30894 6.96938C5.30894 6.71417 5.31413 6.48703 5.3245 6.28797C5.33487 6.08891 5.35561 5.86688 5.38672 5.62188H2.89783C2.82524 5.86688 2.77598 6.08635 2.75005 6.28031C2.72413 6.47427 2.71117 6.70396 2.71117 6.96938C2.71117 7.23479 2.72413 7.47214 2.75005 7.68141C2.77598 7.89068 2.82524 8.11781 2.89783 8.36281V8.36281ZM6.33561 8.36281H9.68005C9.72154 8.04635 9.74746 7.78859 9.75783 7.58953C9.7682 7.39047 9.77339 7.18375 9.77339 6.96938C9.77339 6.76521 9.7682 6.5687 9.75783 6.37984C9.74746 6.19099 9.72154 5.93833 9.68005 5.62188H6.33561C6.29413 5.93833 6.2682 6.19099 6.25783 6.37984C6.24746 6.5687 6.24228 6.76521 6.24228 6.96938C6.24228 7.18375 6.24746 7.39047 6.25783 7.58953C6.2682 7.78859 6.29413 8.04635 6.33561 8.36281V8.36281ZM10.6134 8.36281H13.1023C13.1749 8.11781 13.2241 7.89068 13.2501 7.68141C13.276 7.47214 13.2889 7.23479 13.2889 6.96938C13.2889 6.70396 13.276 6.47427 13.2501 6.28031C13.2241 6.08635 13.1749 5.86688 13.1023 5.62188H10.6289C10.6601 5.97917 10.6808 6.25224 10.6912 6.44109C10.7015 6.62995 10.7067 6.80604 10.7067 6.96938C10.7067 7.19396 10.6989 7.40578 10.6834 7.60484C10.6678 7.80391 10.6445 8.05656 10.6134 8.36281V8.36281ZM10.4578 4.70313H12.7912C12.4489 3.99875 11.9797 3.41177 11.3834 2.94219C10.7871 2.4726 10.1001 2.14083 9.32228 1.94688C9.58154 2.32458 9.80191 2.73292 9.98339 3.17188C10.1649 3.61083 10.323 4.12125 10.4578 4.70313V4.70313ZM6.50672 4.70313H9.5245C9.41042 4.16208 9.21857 3.63891 8.94894 3.13359C8.67931 2.62828 8.36302 2.18167 8.00005 1.79375C7.6682 2.06938 7.3882 2.43177 7.16005 2.88094C6.93191 3.3301 6.71413 3.9375 6.50672 4.70313V4.70313ZM3.20894 4.70313H5.55783C5.67191 4.15188 5.81709 3.65932 5.99339 3.22547C6.16968 2.79161 6.39265 2.37052 6.66228 1.96219C5.8845 2.15615 5.20524 2.48281 4.6245 2.94219C4.04376 3.40156 3.57191 3.98854 3.20894 4.70313V4.70313Z" fill="#696969"/>
</svg>
