<svg width="12" height="14" viewBox="0 0 12 14" fill="none" xmlns="http://www.w3.org/2000/svg">
<path d="M6 14C3.96407 12.3962 2.45509 10.9093 1.47305 9.53938C0.491017 8.16945 0 6.90533 0 5.74702C0 3.98727 0.604789 2.5895 1.81437 1.5537C3.02395 0.5179 4.41916 0 6 0C7.58084 0 8.97605 0.5179 10.1856 1.5537C11.3952 2.5895 12 3.98727 12 5.74702C12 6.90533 11.509 8.16945 10.5269 9.53938C9.54491 10.9093 8.03593 12.3962 6 14ZM6 7.01671C6.45509 7.01671 6.83832 6.87192 7.1497 6.58234C7.46108 6.29276 7.61677 5.93636 7.61677 5.51313C7.61677 5.13445 7.46108 4.78918 7.1497 4.47733C6.83832 4.16547 6.45509 4.00955 6 4.00955C5.54491 4.00955 5.16168 4.16547 4.8503 4.47733C4.53892 4.78918 4.38323 5.13445 4.38323 5.51313C4.38323 5.93636 4.53892 6.29276 4.8503 6.58234C5.16168 6.87192 5.54491 7.01671 6 7.01671Z" fill="#F50F15"/>
</svg>
