<svg width="20" height="15" viewBox="0 0 20 15" fill="none" xmlns="http://www.w3.org/2000/svg">
<path d="M4.11788 13.2C3.80415 13.2 3.52964 13.11 3.29435 12.93C3.05905 12.75 2.94141 12.54 2.94141 12.3V3C2.94141 2.76 3.05905 2.55 3.29435 2.37C3.52964 2.19 3.80415 2.1 4.11788 2.1H5.39239V1.2H6.6669V2.1H13.3336V1.2H14.6081V2.1H15.8826C16.1963 2.1 16.4708 2.19 16.7061 2.37C16.9414 2.55 17.0591 2.76 17.0591 3V12.3C17.0591 12.54 16.9414 12.75 16.7061 12.93C16.4708 13.11 16.1963 13.2 15.8826 13.2H4.11788ZM4.11788 12.3H15.8826V5.85H4.11788V12.3ZM4.11788 4.95H15.8826V3H4.11788V4.95ZM4.11788 4.95V3V4.95ZM6.07866 8.1V7.2H13.9218V8.1H6.07866ZM6.07866 10.8V9.9H11.5493V10.8H6.07866Z" fill="#F50F15"/>
</svg>
