<svg width="26" height="26" viewBox="0 0 26 26" fill="none" xmlns="http://www.w3.org/2000/svg">
<path d="M4.875 20C4.39175 20 4 19.6082 4 19.125V19.125C4 18.6418 4.39175 18.25 4.875 18.25H21.125C21.6082 18.25 22 18.6418 22 19.125V19.125C22 19.6082 21.6082 20 21.125 20H4.875ZM4.875 13.875C4.39175 13.875 4 13.4832 4 13V13C4 12.5168 4.39175 12.125 4.875 12.125H21.125C21.6082 12.125 22 12.5168 22 13V13C22 13.4832 21.6082 13.875 21.125 13.875H4.875ZM4.875 7.75C4.39175 7.75 4 7.35825 4 6.875V6.875C4 6.39175 4.39175 6 4.875 6H21.125C21.6082 6 22 6.39175 22 6.875V6.875C22 7.35825 21.6082 7.75 21.125 7.75H4.875Z" fill="#E0E0E0"/>
</svg>
