<svg width="28" height="20" viewBox="0 0 28 20" fill="none" xmlns="http://www.w3.org/2000/svg">
<path d="M7.33333 17C6.97778 17 6.66667 16.895 6.4 16.685C6.13333 16.475 6 16.23 6 15.95V5.1C6 4.82 6.13333 4.575 6.4 4.365C6.66667 4.155 6.97778 4.05 7.33333 4.05H8.77778V3H10.2222V4.05H17.7778V3H19.2222V4.05H20.6667C21.0222 4.05 21.3333 4.155 21.6 4.365C21.8667 4.575 22 4.82 22 5.1V15.95C22 16.23 21.8667 16.475 21.6 16.685C21.3333 16.895 21.0222 17 20.6667 17H7.33333ZM7.33333 15.95H20.6667V8.425H7.33333V15.95ZM7.33333 7.375H20.6667V5.1H7.33333V7.375ZM7.33333 7.375V5.1V7.375ZM9.55556 11.05V10H18.4444V11.05H9.55556ZM9.55556 14.2V13.15H15.7556V14.2H9.55556Z" fill="#F50F15"/>
</svg>
