<svg width="135" height="40" viewBox="0 0 135 40" fill="none" xmlns="http://www.w3.org/2000/svg">
<path fill-rule="evenodd" clip-rule="evenodd" d="M135 35.9904C135 38.2056 133.262 40 131.113 40H3.89257C1.744 40 0 38.2056 0 35.9904V4.01487C0 1.80067 1.744 0 3.89257 0H131.111C133.262 0 135 1.80067 135 4.01487V35.9904Z" fill="#192133"/>
<path fill-rule="evenodd" clip-rule="evenodd" d="M36.1858 8.59934C36.5213 7.30057 37.8118 6.29922 39.1651 6.36366C39.9962 6.3174 40.7993 6.69084 41.3826 7.26917C41.1975 7.45259 41.0124 7.63765 40.829 7.82272C40.0111 6.93374 38.5074 6.88582 37.6432 7.73019C36.5279 8.68692 36.6997 10.688 37.9572 11.4514C39.1783 12.3106 41.2074 11.5736 41.3247 10.0055H39.1618V9.22064C40.1367 9.22395 41.1116 9.21238 42.0865 9.22725C42.1509 10.0419 42.065 10.9441 41.49 11.5769C40.3564 12.9352 38.0134 12.9055 36.8699 11.5736C36.1214 10.7921 35.9561 9.62382 36.1858 8.59934Z" fill="#B1C3D3"/>
<path fill-rule="evenodd" clip-rule="evenodd" d="M42.9622 6.49255C44.1337 6.49421 45.3036 6.49255 46.4735 6.49421V7.23778C45.5647 7.23943 44.6559 7.23778 43.7487 7.23943C43.747 7.85742 43.747 8.47707 43.747 9.09671H46.1843V9.84029C45.373 9.84194 44.56 9.84029 43.747 9.84029V11.6563C44.6559 11.6596 45.5647 11.6563 46.4735 11.6579V12.4428H42.9622C42.9622 10.4599 42.9605 8.47707 42.9622 6.49255Z" fill="#B1C3D3"/>
<path fill-rule="evenodd" clip-rule="evenodd" d="M47.0515 6.49416C48.4148 6.49251 49.778 6.49251 51.1412 6.49416V7.23773H49.4888C49.4872 8.97274 49.4905 10.7077 49.4888 12.4428H48.7039V7.23773H47.0515C47.0499 6.98988 47.0499 6.74202 47.0515 6.49416Z" fill="#B1C3D3"/>
<path fill-rule="evenodd" clip-rule="evenodd" d="M53.7042 6.49255C53.9769 6.49255 54.2528 6.49421 54.5288 6.49255V12.4428H53.7026C53.7026 10.4599 53.7009 8.47707 53.7042 6.49255Z" fill="#B1C3D3"/>
<path fill-rule="evenodd" clip-rule="evenodd" d="M55.1899 6.49255C56.5532 6.49421 57.9164 6.49255 59.2796 6.49421V7.23778C58.7294 7.23778 58.1791 7.23778 57.6289 7.23943C57.6256 8.97444 57.6305 10.7094 57.6256 12.4445C57.3645 12.4428 57.1034 12.4428 56.8423 12.4428V7.23778C56.2904 7.23778 55.7402 7.23778 55.1899 7.23943V6.49255Z" fill="#B1C3D3"/>
<path fill-rule="evenodd" clip-rule="evenodd" d="M63.5213 6.53221C64.5871 6.17365 65.8891 6.34219 66.7054 7.16177C67.9893 8.31183 68.0108 10.5657 66.7467 11.7372C65.7685 12.727 64.0831 12.8493 62.933 12.0991C61.9036 11.4464 61.3864 10.1493 61.5863 8.95957C61.7317 7.88221 62.4951 6.90565 63.5213 6.53221ZM64.0021 7.20474C64.8961 6.93209 65.9338 7.30553 66.4526 8.08215C67.1648 9.12977 66.9318 10.7888 65.8098 11.4596C64.8663 12.0975 63.4734 11.8314 62.8223 10.9011C61.8821 9.67671 62.4621 7.60296 64.0021 7.20474Z" fill="#B1C3D3"/>
<path fill-rule="evenodd" clip-rule="evenodd" d="M68.5758 6.49255C68.8931 6.49421 69.212 6.49421 69.5309 6.49751C70.4793 8.0111 71.4229 9.52799 72.373 11.0399C72.3779 9.52468 72.373 8.00944 72.3746 6.49255C72.6357 6.49255 72.8968 6.49421 73.1595 6.49421V12.4411C72.8836 12.4428 72.6093 12.4428 72.335 12.4445C71.3055 10.8499 70.3472 9.21073 69.3012 7.62609C69.4301 9.22725 69.326 10.8383 69.359 12.4445C69.0963 12.4428 68.8352 12.4428 68.5741 12.4428C68.5741 10.4583 68.5725 8.47542 68.5758 6.49255Z" fill="#B1C3D3"/>
<path fill-rule="evenodd" clip-rule="evenodd" d="M37.7006 18.5401C39.1316 17.1719 41.1706 16.4762 43.1419 16.6828C44.6522 16.7985 46.0733 17.5123 47.1556 18.5582C46.7061 19.0077 46.2418 19.4439 45.8254 19.9264C44.7976 18.9895 43.403 18.431 42.0018 18.5946C40.2321 18.7351 38.6161 19.9562 37.9667 21.6019C37.1801 23.4609 37.6263 25.7825 39.1101 27.1655C40.8418 28.9237 43.9913 28.9964 45.7577 27.2531C46.4335 26.6368 46.7326 25.7346 46.8846 24.8571C45.3991 24.8092 43.912 24.8489 42.4248 24.8357V22.8941C44.5266 22.8875 46.6268 22.9024 48.7287 22.8875C48.9798 24.4441 48.7733 26.113 47.9884 27.496C47.0498 29.0955 45.3198 30.1844 43.479 30.3811C41.7639 30.6273 39.9628 30.2125 38.5334 29.2294C36.6629 27.9669 35.455 25.7412 35.5211 23.4724C35.5079 21.6168 36.3424 19.7942 37.7006 18.5401Z" fill="#B1C3D3"/>
<path fill-rule="evenodd" clip-rule="evenodd" d="M79.3145 17.3173H81.2973V30.2886H79.3145V17.3173Z" fill="#B1C3D3"/>
<path fill-rule="evenodd" clip-rule="evenodd" d="M95.1777 17.3173C96.6665 17.319 98.1553 17.314 99.6457 17.319C100.707 17.3289 101.781 17.6693 102.589 18.3699C103.499 19.1283 104.006 20.323 103.939 21.5028C103.929 22.8941 103.063 24.1995 101.835 24.8274C100.417 25.6156 98.7485 25.3132 97.2035 25.3727C97.2002 26.9838 97.2018 28.5949 97.2018 30.2059C96.526 30.2059 95.8518 30.2059 95.1793 30.2076C95.176 25.9097 95.1777 21.6135 95.1777 17.3173ZM97.2018 19.3018C98.1239 19.3134 99.0459 19.2754 99.9679 19.3167C101.196 19.3812 102.194 20.7626 101.754 21.9358C101.506 22.714 100.774 23.3171 99.9531 23.3717C99.036 23.4179 98.1189 23.375 97.2018 23.3882V19.3018Z" fill="#B1C3D3"/>
<path fill-rule="evenodd" clip-rule="evenodd" d="M105.505 30.2059C105.505 25.9097 105.503 21.6135 105.505 17.3173H107.612V30.2059C106.908 30.2059 106.206 30.2076 105.505 30.2059Z" fill="#B1C3D3"/>
<path fill-rule="evenodd" clip-rule="evenodd" d="M111.579 21.1822C112.995 20.7625 114.633 20.9195 115.859 21.7771C116.822 22.448 117.323 23.636 117.318 24.7894C117.323 26.5938 117.318 28.3999 117.32 30.2059C116.631 30.2059 115.942 30.2076 115.252 30.2059C115.251 29.8391 115.252 29.4739 115.262 29.1071C113.964 31.1561 110.505 30.8272 109.406 28.7485C108.861 27.6927 109.013 26.2947 109.869 25.4454C111.278 24.0789 113.56 23.9285 115.292 24.7365C115.239 22.7124 112.085 22.2117 111.194 23.9136C110.566 23.6311 109.91 23.4113 109.304 23.0858C109.783 22.1869 110.588 21.4615 111.579 21.1822ZM111.905 26.3195C112.952 25.7643 114.249 25.8949 115.282 26.4269C115.082 27.7108 113.815 28.7717 112.5 28.5684C111.958 28.4891 111.351 28.19 111.221 27.6117C111.125 27.0912 111.442 26.5542 111.905 26.3195Z" fill="#B1C3D3"/>
<path fill-rule="evenodd" clip-rule="evenodd" d="M53.2963 21.602C54.8165 21.3045 56.4986 21.7705 57.5462 22.9387C59.1788 24.6787 59.0416 27.7406 57.2224 29.2988C55.5204 30.8438 52.637 30.7694 51.0276 29.1236C49.2347 27.3837 49.3487 24.1251 51.2986 22.5455C51.8703 22.0696 52.5659 21.7474 53.2963 21.602ZM53.4615 23.4278C54.9867 22.8479 56.6903 24.1962 56.6804 25.7775C56.8225 27.035 55.9401 28.3255 54.6876 28.575C53.5062 28.851 52.2669 28.033 51.8984 26.9111C51.4192 25.5826 52.0603 23.8707 53.4615 23.4278Z" fill="#B1C3D3"/>
<path fill-rule="evenodd" clip-rule="evenodd" d="M62.8783 21.6119C64.4365 21.2897 66.1765 21.7705 67.2324 22.9916C68.7955 24.7217 68.6749 27.6943 66.9135 29.2443C65.1322 30.9479 61.953 30.7562 60.4031 28.8345C58.9143 27.0862 59.0828 24.1714 60.8228 22.6512C61.3961 22.1274 62.1166 21.7672 62.8783 21.6119ZM63.184 23.3998C64.5175 22.9602 66.003 23.9484 66.2575 25.2934C66.6144 26.6137 65.8378 28.1966 64.4712 28.537C63.1939 28.9386 61.7911 28.005 61.4854 26.7409C61.0789 25.4124 61.801 23.7831 63.184 23.3998Z" fill="#B1C3D3"/>
<path fill-rule="evenodd" clip-rule="evenodd" d="M71.2905 22.2249C72.6554 21.2533 74.7291 21.2401 75.937 22.481C75.9304 22.2464 75.9271 22.0117 75.9238 21.7788H77.8273V29.925C77.8042 31.0966 77.5035 32.3441 76.6674 33.21C75.6198 34.3088 73.936 34.5864 72.5034 34.2493C71.2013 33.9502 70.1652 32.9373 69.6232 31.7427C70.1999 31.4948 70.7799 31.2535 71.3599 31.0156C71.5978 31.4436 71.8655 31.8748 72.2786 32.1591C73.2634 32.9076 74.896 32.6944 75.552 31.6105C75.9684 30.9594 75.9337 30.158 75.937 29.4161C75.1934 30.2043 74.0549 30.5546 72.9925 30.3712C71.2773 30.1299 69.8381 28.7403 69.4316 27.073C68.9755 25.2769 69.724 23.2362 71.2905 22.2249ZM73.3775 23.3287C75.0679 23.0197 76.3716 24.8704 76.0395 26.422C75.9271 27.7108 74.6779 28.8642 73.3543 28.5882C72.1167 28.4015 71.2426 27.1688 71.2938 25.951C71.2657 24.7349 72.1415 23.5121 73.3775 23.3287Z" fill="#B1C3D3"/>
<path fill-rule="evenodd" clip-rule="evenodd" d="M83.7431 22.6132C84.9295 21.478 86.8331 21.1822 88.3054 21.9142C89.4587 22.5041 90.2023 23.6641 90.5691 24.877C88.5962 25.6949 86.6199 26.5062 84.6503 27.3308C85.0072 27.9322 85.5541 28.4594 86.268 28.575C87.3123 28.8229 88.3946 28.2644 88.9597 27.387C89.4802 27.729 89.9991 28.071 90.5113 28.4263C89.9726 29.1963 89.2224 29.8325 88.3301 30.1464C86.8116 30.6967 84.9543 30.4042 83.7861 29.2508C81.9569 27.5588 81.98 24.3449 83.7431 22.6132ZM84.3066 25.799C84.3033 24.7002 85.0221 23.6294 86.1044 23.3469C86.9008 23.0907 87.841 23.4311 88.2541 24.1665C86.9355 24.7035 85.6235 25.2603 84.3066 25.799Z" fill="#B1C3D3"/>
<path fill-rule="evenodd" clip-rule="evenodd" d="M118 21.4516C118.763 21.445 119.528 21.4483 120.294 21.4483C121.128 23.4625 121.956 25.4801 122.789 27.496C123.562 25.4818 124.342 23.4691 125.11 21.4532C125.9 21.4433 126.692 21.4499 127.483 21.4483C125.634 25.718 123.768 29.9829 121.913 34.251C121.169 34.2559 120.426 34.2576 119.682 34.2493C120.366 32.8051 121.032 31.351 121.72 29.9085C120.487 27.0862 119.236 24.2722 118 21.4516Z" fill="#B1C3D3"/>
<path d="M24.8258 17.1355L12.4951 10.3511C12.1464 10.1601 11.8227 10.1158 11.5625 10.1962L21.6624 20.3016L24.8258 17.1355Z" fill="#D7E69D"/>
<path d="M24.8417 23.4832L29.0505 21.1661C29.9042 20.694 29.9042 19.9276 29.0505 19.4592L24.8263 17.1355L21.6621 20.3016L24.8417 23.4832Z" fill="#FEEB74"/>
<path d="M11.5616 10.1954C11.1871 10.3127 10.9438 10.6934 10.9438 11.268L10.9461 29.3572C10.9461 29.9252 11.182 30.2992 11.5454 30.4239L21.6623 20.3008L11.5616 10.1954Z" fill="#7DBEBB"/>
<path d="M11.5454 30.4247C11.8086 30.5139 12.1381 30.4711 12.4949 30.2764L24.8411 23.4832L21.6623 20.3023L11.5454 30.4247Z" fill="#F36F56"/>
</svg>
