<svg width="28" height="28" viewBox="0 0 28 28" fill="none" xmlns="http://www.w3.org/2000/svg">
<path d="M19.748 22.33C19.0383 22.33 18.4306 22.1021 17.9248 21.6462C17.4189 21.1903 17.166 20.6426 17.166 20.003C17.166 19.9077 17.1773 19.7954 17.2 19.6662C17.2226 19.5369 17.2566 19.4178 17.3019 19.3089L10.4392 15.7163C10.2127 15.9477 9.93339 16.1348 9.60121 16.2777C9.26902 16.4206 8.92928 16.492 8.582 16.492C7.87233 16.492 7.26457 16.2641 6.75874 15.8082C6.25292 15.3523 6 14.8046 6 14.165C6 13.5118 6.25292 12.9607 6.75874 12.5116C7.26457 12.0625 7.87233 11.838 8.582 11.838C8.92928 11.838 9.26147 11.8992 9.57856 12.0217C9.89564 12.1442 10.1825 12.3211 10.4392 12.5524L17.3019 9.00064C17.2566 8.90538 17.2226 8.79651 17.2 8.67404C17.1773 8.55156 17.166 8.43589 17.166 8.32702C17.166 7.67382 17.4189 7.12269 17.9248 6.67361C18.4306 6.22454 19.0383 6 19.748 6C20.4728 6 21.0843 6.22454 21.5826 6.67361C22.0809 7.12269 22.33 7.67382 22.33 8.32702C22.33 8.96662 22.0809 9.51435 21.5826 9.97023C21.0843 10.4261 20.4728 10.654 19.748 10.654C19.4007 10.654 19.0648 10.603 18.7401 10.501C18.4155 10.3989 18.1399 10.2322 17.9134 10.0009L11.0507 13.4302C11.0809 13.539 11.1074 13.6649 11.13 13.8078C11.1527 13.9507 11.164 14.0697 11.164 14.165C11.164 14.2603 11.1527 14.3623 11.13 14.4712C11.1074 14.5801 11.0809 14.6889 11.0507 14.7978L17.9134 18.3087C18.1399 18.1182 18.4042 17.9651 18.7061 17.8495C19.0081 17.7338 19.3554 17.6759 19.748 17.6759C20.4728 17.6759 21.0843 17.9005 21.5826 18.3496C22.0809 18.7986 22.33 19.3498 22.33 20.003C22.33 20.6426 22.0809 21.1903 21.5826 21.6462C21.0843 22.1021 20.4728 22.33 19.748 22.33ZM19.748 9.4293C20.0953 9.4293 20.386 9.32384 20.62 9.11291C20.854 8.90198 20.9711 8.64002 20.9711 8.32702C20.9711 8.01403 20.854 7.75207 20.62 7.54114C20.386 7.33021 20.0953 7.22475 19.748 7.22475C19.4007 7.22475 19.1101 7.33021 18.876 7.54114C18.642 7.75207 18.525 8.01403 18.525 8.32702C18.525 8.64002 18.642 8.90198 18.876 9.11291C19.1101 9.32384 19.4007 9.4293 19.748 9.4293V9.4293ZM8.582 15.2673C8.92928 15.2673 9.21995 15.1618 9.45399 14.9509C9.68803 14.74 9.80505 14.478 9.80505 14.165C9.80505 13.852 9.68803 13.59 9.45399 13.3791C9.21995 13.1682 8.92928 13.0627 8.582 13.0627C8.23471 13.0627 7.94405 13.1682 7.71001 13.3791C7.47597 13.59 7.35895 13.852 7.35895 14.165C7.35895 14.478 7.47597 14.74 7.71001 14.9509C7.94405 15.1618 8.23471 15.2673 8.582 15.2673V15.2673ZM19.748 21.1053C20.0953 21.1053 20.386 20.9998 20.62 20.7889C20.854 20.5779 20.9711 20.316 20.9711 20.003C20.9711 19.69 20.854 19.428 20.62 19.2171C20.386 19.0062 20.0953 18.9007 19.748 18.9007C19.4007 18.9007 19.1101 19.0062 18.876 19.2171C18.642 19.428 18.525 19.69 18.525 20.003C18.525 20.316 18.642 20.5779 18.876 20.7889C19.1101 20.9998 19.4007 21.1053 19.748 21.1053Z" fill="white"/>
</svg>
