<svg width="40" height="40" viewBox="0 0 40 40" fill="none" xmlns="http://www.w3.org/2000/svg">
<path d="M37 0H3C1.3431 0 0 1.34315 0 3V37C0 38.6569 1.3431 40 3 40H37C38.6569 40 40 38.6569 40 37V3C40 1.34315 38.6569 0 37 0Z" fill="#192133"/>
<path d="M32.6 12.5C31.6 12.9 30.6 13.2 29.6 13.3C30.7 12.6 31.5 11.6 31.9 10.4C30.9 11 29.7 11.4 28.5 11.7C27.6 10.6 26.2 10 24.7 10C21.8 10 19.5 12.4 19.5 15.3C19.5 15.7 19.5 16.1 19.6 16.4C15.2 16.2 11.4 14.1 8.8 11C8.3 11.7 8.1 12.6 8.1 13.6C8.1 15.4 9 17 10.4 18C9.5 17.9 8.7 17.7 8 17.3V17.4C8 19.9 9.8 22 12.2 22.5C11.8 22.6 11.3 22.7 10.9 22.7C10.5 22.7 10.2 22.7 9.9 22.6C10.5 24.7 12.5 26.2 14.8 26.3C13 27.7 10.7 28.5 8.3 28.5C7.8 28.5 7.4 28.5 7 28.4C9.3 29.9 12.1 30.8 15 30.8C24.7 30.8 30 22.8 30 15.9V15.2C31 14.4 31.9 13.5 32.6 12.5Z" fill="#B1C3D3"/>
</svg>
