<svg width="70" height="40" viewBox="0 0 70 40" fill="none" xmlns="http://www.w3.org/2000/svg">
<path d="M67 0H33C31.3431 0 30 1.34315 30 3V37C30 38.6569 31.3431 40 33 40H67C68.6569 40 70 38.6569 70 37V3C70 1.34315 68.6569 0 67 0Z" fill="#1F80E0"/>
<path d="M62.6 12.5C61.6 12.9 60.6 13.2 59.6 13.3C60.7 12.6 61.5 11.6 61.9 10.4C60.9 11 59.7 11.4 58.5 11.7C57.6 10.6 56.2 10 54.7 10C51.8 10 49.5 12.4 49.5 15.3C49.5 15.7 49.5 16.1 49.6 16.4C45.2 16.2 41.4 14.1 38.8 11C38.3 11.7 38.1 12.6 38.1 13.6C38.1 15.4 39 17 40.4 18C39.5 17.9 38.7 17.7 38 17.3V17.4C38 19.9 39.8 22 42.2 22.5C41.8 22.6 41.3 22.7 40.9 22.7C40.5 22.7 40.2 22.7 39.9 22.6C40.5 24.7 42.5 26.2 44.8 26.3C43 27.7 40.7 28.5 38.3 28.5C37.8 28.5 37.4 28.5 37 28.4C39.3 29.9 42.1 30.8 45 30.8C54.7 30.8 60 22.8 60 15.9V15.2C61 14.4 61.9 13.5 62.6 12.5Z" fill="white"/>
</svg>
